<svg xmlns="http://www.w3.org/2000/svg" viewBox="0 0 38.67 69.54"><defs><style>.cls-1{fill:#2614c9;}</style></defs><g id="Layer_2" data-name="Layer 2"><g id="Layer_1-2" data-name="Layer 1"><path class="cls-1" d="M35.75,69.54c-9.7,0-18.93-3.25-24.69-8.71C7,57,5.07,52.24,5.69,47.54c.83-6.26,5-9.7,8.43-12.18C8.69,32.9,1.69,29.46.22,21.79-.6,17.51.89,13.33,4.53,9.71,10.36,3.9,21.53,0,32.33,0a39,39,0,0,1,6.34.51L37.33,6.39a30.49,30.49,0,0,0-5-.4C23.62,6,14.4,9.11,9.91,13.58c-2.29,2.28-3.2,4.72-2.72,7.25,1,5.06,5.79,7.23,10.9,9.54,1.38.62,2.69,1.21,3.92,1.86l3.58,1.91-2.84,2.65a34.54,34.54,0,0,1-3.25,2.54c-3.19,2.3-6.2,4.47-6.79,8.88-.5,3.82,1.69,6.8,3.62,8.63C20.7,61,28.14,63.56,35.75,63.56c.65,0,1.31,0,2-.06l.47,6C37.37,69.52,36.55,69.54,35.75,69.54Z"/></g></g></svg>